<svg xmlns="http://www.w3.org/2000/svg" xmlns:xlink="http://www.w3.org/1999/xlink" preserveAspectRatio="none" width="1440" height="460" viewBox="0 0 1440 460">
  <defs>
    <clipPath id="clip-path">
      <rect id="Rectangle_1" data-name="Rectangle 1" width="1440" height="460" transform="translate(-795 -45)" fill="#fff" stroke="#707070" stroke-width="1"/>
    </clipPath>
    <linearGradient id="linear-gradient" x1="1" y1="0.5" x2="0.001" y2="0.5" gradientUnits="objectBoundingBox">
      <stop offset="0" stop-color="#cc066f"/>
      <stop offset="1" stop-color="#791e97"/>
    </linearGradient>
  </defs>
  <g id="Mask_Group_1" data-name="Mask Group 1" transform="translate(795 45)" clip-path="url(#clip-path)">
    <g id="Combined_Shape" transform="translate(-814 -785)">
      <g id="Group_1" data-name="Group 1">
        <path id="Path_1" data-name="Path 1" d="M0,1163.76l.068.037v-.069Zm32.41,9.185c-1.223,1.61-4.383,1.075-7.575,1.15l-.425-1.923,6.083-1.05C30.974,1171.581,31.64,1172.213,32.41,1172.945Zm6.695-.529c1.261-.345,2.657-.725,4.154-1.133l1.99.835,3.55-.981,3.645,3c-3.967-.38-6.718-.744-9.51-.88-2.75-.13-5.54-.028-9.49-.028,1.71-.926,2.312-1.25,3.234-1.751.662.254,1.4.54,2.427.938Zm6.991-8.45c1.937-.46,3.075-.728,3.707-.878a7.383,7.383,0,0,1,.293.878Zm11.515,9.394,1.456-1.934c3.254-.879,2.46.948,3.5,1.553l2.689-.858c1.114.34,2.255.69,3.509,1.07l3.615-1.152,2.226.91c1.8-.655,3.5-1.27,5.887-2.134v3.172c-2.947-.551-5.038,1.256-8.276.188-2.08-.683-5.54-.216-8.358-.1-2.352.1-4.675.428-7.878.74-1.019-.343-3.214-.763-2.247-2.545,1.184.334,2.216.624,3.88,1.09Zm26.865-1.239H82.7v-.3h1.772Zm6.461-.206h-.59v-.908h.59Zm16.376-.266,5.334,2.448c-3.49,0-7.35.62-9.447-.145-3.1-1.137-4.957,1.107-7.77-.031-.492-1.261-1.068-2.746-1.783-4.587,3.891.758,8.227.868,11.411,3.23l2.255-.915Zm13.872-1.17c.21.847.57,1.388.428,1.893-.5,1.79-2.92,2.167-6.561,1.958-.1-1.02-.214-2.095-.407-3.948,1.47.71,2.032.98,2.557,1.231l3.983-1.133Zm8.521.95c2.14-1.816,5.96,1.4,7.776-1.016l4.234,2.945H123.04c.062.033-.363-.147-.323-.193.812-.914,1.679-1.812,2.62-2.8a36.381,36.381,0,0,0,4.368,1.067Zm18.692,1.014,1.857-2.329q.867.27,1.732.536c.222.738.446,1.476.73,2.408l3.82.174,4.66-2.285c2.64-.4,4.15-.625,6.25-.942l3.316,2.12c-6.211.54-12.15,2.234-18.745,1.814-3.307-.21-6.449-1.055-11.255-1.891l4.885-.957c.182.091,1.188.584,2.75,1.352Zm41.462-1.3c.447-.23,1.074-.55,1.958-1,.885.231,1.854.488,2.985.785,2.732-.387,5.742-.815,9.41-1.333l1.69,1.293,16.942-1.843c1.24,1.077,2.09,1.816,3.091,2.688l-11.963,1.312c-.387-.2-1.011-.518-1.637-.836-.4.22-.81.64-1.222.64-12.4.036-24.8.028-37.543.028-.093-.167-.333-.588-.635-1.117l11.8-2.165c1.371.413,3.221.973,5.122,1.548Zm40.936-1.128,3.856-1c1.041.326,1.947.607,3.2,1,4.085-1.609,8.518-1.138,12.754.031a4.95,4.95,0,0,1,5.388-.316,52.46,52.46,0,0,1,7.56-1.374c1.736-.075,3.622.81,5.524-.073a4.655,4.655,0,0,1,1.454.245c.687.193,1.312.436,2.1.7,2.011-1.424,5.036-.093,6.793-.63,2.5-.767,5.958.415,7.758-1.086,2.444,1.828,4.752-.387,6.755-.111,1.184.407,2.059.7,2.127.728,3.045-.29,5.152-.665,7.246-.65,2.32.018,5.568.948,6.754.5,2.911-1.107,4.58,1.44,6.646.257s4.715-.848,7.13-.764c3.513.12,7.371-.712,10.492.711,5.6-1.574,11.706-.579,17.558-.7a90.03,90.03,0,0,0,14.241-1.4,4.527,4.527,0,0,1,1.063.463l2.311-.74c2.343-.591,3.23,1.64,6.507.513a4.2,4.2,0,0,1,1.247-.2c1.01.14,2.027.265,3.07.345a11.2,11.2,0,0,0,3.09.156c1.6.03,3.24.01,4.93-.094l.014-.01c.982.022,1.982.05,3,.05v1.5c-1.14-.343-1.806-.543-2.7-.811l-4.174,1.785a3.6,3.6,0,0,1-1.635-.736,17.47,17.47,0,0,1-2,.469,26.559,26.559,0,0,0-6.2.381,83.414,83.414,0,0,0-10.357.14c-.32.21-1.284.852-1.6,1.06-1.733-.12-3.091-.272-4.323-.359l-.068-.458c-1.89-.292-1.316.6-3.788.284-5.94-.761-12.157-1.644-9.437-.43,4.362.3,6.724.466,8.035.568q-1.268-.015-2.534-.046c-1.214-.134-2.96-.3-5.5-.523-10.06-.35-10.744-.1-11.024-.005l.188.525c-.712.316-1.28.566-1.8.8a5.649,5.649,0,0,0-1.9-.766c-7.223-.056-14.5-.25-21.642.1a29.435,29.435,0,0,1-5.538-.12c-1.978-.256-4.037-.376-6.22-.569-.846.405-1.86.894-3.269,1.571-3.193-.283-6.683-.594-10.2-.908-.488.194-1.076.429-1.466.583-1.112-.318-2.03-.583-2.96-.848l-4.39,1.822c-2.2-.322-3.962-.618-5.774-.84-6.736-.822-13.47,1.586-20.265.028a8.914,8.914,0,0,0-2.225.36,45.9,45.9,0,0,1-14.558-.08l-4.684.666c.2-1.168.324-1.9.465-2.735,1.343.472,2.207.777,2.964,1.042Zm71.466-18.887.248,1.082c-1.672.2-3.349.394-5.3.622l-.209-.51h2.04c-.794-.148-1.519-.282-2.208-.408-.1-.242-.2-.484-.323-.786Zm5.593.865h-.59v-.906h.59Zm7.523-.308-.094.07c-.25.022-.5.042-.748.062-.228-.49-.458-.984-.688-1.474l1.53-.1Zm83.336,14.734-.531,1.2-4.469-.362c1.853-.652,2.837-1,3.822-1.346Zm5.843.255v1.28l-1.722-.084.774-1.254C403.925,1166.638,404.241,1166.658,404.557,1166.678Zm6.12,1.157h-1.991v-.256h1.992Zm62.786,6.1-6-.462.783-1.5c1.57.59,2.633.988,5.217,1.96Zm29.115,3.633h-.664v-.772h.664Zm15.488,2.784h-1.992v-.256h1.992Zm1.4-.6H518.8v-.77h.664Zm13.023-.732-6.243-1.232c3.177-.35,6.17-.73,9-.2-1.076.558-1.83.946-2.757,1.428Zm36.87-1.095h-1.991v-.256h1.992Zm21.732,3.583c.169,1.722-1.425,1.734-3.987,1.136.191-.4.358-.742.544-1.136Zm3.224-.966c-1.375-1.385-2.117-2.13-2.977-3,1.356.03,2.286.045,4,.081C595.033,1178.492,594.768,1179.249,594.315,1180.546Zm21.128,2.914h-.666v-.772h.666Zm18.758-1.77h2c-.31.405-.752.987-1.2,1.57-.27-.08-.535-.163-.8-.243Zm28.029-1.356v1.961q-.885-.03-1.766-.065l.754-1.935,1.012.039Zm27.988,2.675v1.916c-2.25-1-5.117-.268-7.283-.542-.891-.114-1.434-.7-2.717-1.374Zm40.114-3.645c4.26.7,8.615,1.424,12.152,2.007l-7.714,2.983c-.677-.153-1.966-.447-3.43-.778-1.014.275-1.965.531-2.918.788-1.665-1.381-4.15-2.7-2.258-4.266Zm24.205,2.492h-1.992v-.256h1.992Zm1.491-7.11-.135.367h-2.865l.188-.666,2.812.3Zm47.362,6.4c-1.621-.842-3.027-1.573-5.78-3.006,4.3.708,6.7,1.1,8.986,1.483v1.2c3.432.458,6.728.9,11.035,1.474q-2.994,1.309-5.988,2.623-1.36-.413-2.721-.822c-1.779.362-3.38.691-5.114,1.045-.8-.7-1.424-1.251-2.255-1.984-1.4.33-2.665.625-3.753.879-1.75-.417-37.543-.829-39.169-1.216,1.542-2.238,37.865-.32,38.851-.394l5.908-1.278Zm-4.326-5.06c-4.688.876-4.143-.044-3.75-1.026m10.638.8,4.858-.782,2.453.669,2.347-.656c2.216.278,3.855.538,5.585.687,2,.172,4.08.244,6.764.392l3.655-.6.474,1.48c-3.06,0-5.607.041-8.134-.014-1.9-.043-4.664-.517-5.476-.27-3.1.936-4.388-.574-6.717-.347l-2.222.468c-1.61-.247-2.7-.414-3.6-.551l-1.131.273-4.717-.422,3.359-.983,2.505.653Zm14.365-4.616c1.383-.388,2.238-.629,3.752-1.05l2.329,3c-3.143-.627-5.386-1.4-6.267-1.192-3.753.883-6.572-.268-10.733-.313l7.106-1.453Zm-.862-28.954h-1.992v-.258h1.992Zm13.947,30.595h-6l.853-1.636C829.911,1171.776,831,1172.122,833.4,1172.884Zm.6,3.66c4.416.317,8.863-.59,12.782.832,4.422-1.633,8.784-.752,12.905.01,1.73-.315,3.294-.6,5.313-.972v4c-1.88-1.066-3.005-1.706-4.04-2.292h-26.96Zm5.378-4.288-.186.666-2.814-.3.135-.366Zm9.475.963-7.427-1.264,11-.736Zm9.433.028h-2.884c.03-.218.062-.44.094-.66q1.452.141,2.906.28C858.369,1173,858.332,1173.121,858.292,1173.247Zm3.1,1.123v-2l4,.283Zm-17.37-7.986c1.047.153.655.462.373.447s-.555-.058-.832-.092c-.84.792-.08,1.265.684,1.738,1.132-.328,2.094-.61,3.331-.967,1.079.343,2.04.647,3,.954l2.8-1.167c-.625-.285-1.25-.57-2.443-1.118,2.94-.062,5.373-.11,7.181-.147l4.193,2.75c.581-.733.949-1.193,1.316-1.66,3.454.972,7.25-.253,10.943.324.433.068,1.089.128,1.883.19.65.894,1.352,1.859,2.267,3.113l-2.713-.409a2.559,2.559,0,0,1-.806.469l-.8-.235-.656.458c-2.52-.066-5.748-1.727-7.744-.172-2.782-1.619-7.17-.33-10.775-1.046-3.535-.7-8.113-.481-13.243-.713-.371-.145-1.521-.588-3.258-1.259a39.6,39.6,0,0,1,4.147-1.184c-.409-.06-.816-.125-1.227-.183,1.184-.14,2.371-.28,2.383-.091Zm30.74-12.21h-1.994v-.255h1.994Zm3.973,13.61c1.555.1,3.232.239,4.752.433v1.262h5.18c-.632-.566-1.241-1.107-1.858-1.658.315-.085.647-.175,1.005-.274,3.93,1.03,8.4.918,12.926.8l-.212.153c1.28.236,2.747.505,5.681,1.047.344,0,1.5-.008,2.624-.032a9.193,9.193,0,0,1,1.275-.607l.627.222-1.622.492c-.127-.048-.256-.094-.28-.107.1.267.1.5.193.7a17.287,17.287,0,0,1,1.709.455l-.627.222-1.38-.576c.129-.046.258-.092.3-.1-1.315.037-2.538.037-3.664.037l-.557,1.3-1.894-.236.2-.078-10.808-2.587c-1.043.758-1.874,1.36-2.728,1.977a22.4,22.4,0,0,0-6.18.333l-4.655-.6Zm14.794-8.35c-1.065-.7-2.043-1.35-3.022-2,2.087.31,4.074.593,6,.86Q895,1158.813,893.529,1159.434Zm-5.8-3.8,3.743-1.016M908,1144.506h-.96v-.256H908Zm.7.07h-.368v-.256h.368Zm5.206-.392h-.664v-.77h.664Zm-11.53,32.448,1.388.088c.108.066.2.116.3.18-.266.254-.538.518-.812.784l-.88-.224ZM19,1179.35Zm910.2-.285c2.835.937,6.5.613,9.647,1.072a5.606,5.606,0,0,1,1.29.458c4.473-1.491,8.814-.762,13.792.192.773-.423,1.687-.925,3.014-1.654h-7.907c.482-.477.6-.8.861-.82,3.286-.269,6.592-.494,10.728-.79-.45.69-.865,1.32-1.363,2.08.247.044,1,.185,2.24.412l3.68-3.1-4.3-.285c.106-.02.2-.027.31-.047,3.094-.645,7.64-.133,11.543-.133a25.618,25.618,0,0,0,4.815-.04c8.081-2.077,17.82.65,25.468-1.647,1.272.4,2.231.7,3.057.952,3.63-.68,8.949-.818,10.685-1.084,3.667-.56,7.436.63,10.866-.314l1.306,1.61,4.164-2.668,7.132.145c-1.186.528-1.807.805-2.425,1.082l2.776,1.132,2.98-.925c1.228.349,2.186.62,3.31.937.757-.458,1.51-.917.679-1.683-.275.03-.548.07-.826.087s-.67-.283.37-.434c.012-.184,1.192-.048,2.367.089-.408.055-.813.12-1.219.177a40.469,40.469,0,0,1,4.119,1.149c-1.725.65-2.867,1.082-3.238,1.223-5.093.223-9.641.012-13.147.692-3.579.694-7.938-.556-10.7,1.012-2.664-2.027-7.532,1.582-9.94-.5-2.785.41-5.507.814-7.951,1.175-.33-.076-.64-.1-.96-.16l.338-.112h-1.017a21.516,21.516,0,0,0-5.428,0h-.728l.049.078c-.693.09-1.385.19-2.08.3-.436-.592-2.113-.923-3.579-1.4l-4.3,1.4c1.132.2,2.207.385,3.268.568-.6.042-1.214.075-1.846.073l-1.47-.554c-3.712.531-7.461,1.068-11.2,1.6l-11.256-1.192,2.847,1.49-17.84.99-2.1-.441-6.812,1.012c-.533-.03-1.06-.07-1.648-.054-1.436.042-2.86.031-4.283.015-.314-.091-.622-.18-.943-.275l-1.091.234a105.339,105.339,0,0,1-14.566-1.455,8.583,8.583,0,0,0-1.886-.053c-6.425.417-12.258-.82-18.495-1,1.067-1.353,3.692-1.686,5.907-1.54.44.274.877.542,1.32.817a6.17,6.17,0,0,1,1.11-.477,45.585,45.585,0,0,0,11.357.52c3.175-.184,6.108,1.357,9.145.079Zm-6.717-33.587h-1.992v-.258h1.992Zm3.76.067c-.566-.452-1.016-.812-1.392-1.11.454-.234.884-.458,1.392-.718Zm6.333,27.7c-.988-.05-1.981-.1-3-.148a7.67,7.67,0,0,1,1.644-.174c.514.12.982.232,1.356.322Zm6.05,5.478-.98-.054v-.058c.378-.048.76-.1,1.126-.146Zm-1.06-4.971-4-.234,4-.476Zm4.8.262-.816-.116v-.142h1.992v.258Zm4.894,4.264h-4v-.386h4Zm8.55-18.512a3.909,3.909,0,0,0-.494.082c0-.06.176-.12.494-.178Zm2.67.22H956.56c.547-.06,1.221-.12,2-.176-.023.056-.052.12-.077.176Zm-12.048-2.818c.05.273.1.52.145.771,1.507-.017,3.01-.03,4.484-.04q.01-.03.021-.059l.65.055c2.851-.016,5.56-.018,7.922-.01-.093.171-.182.342-.266.5-4.774.134-10.951.266-16.748.4l-.933.386-.606-.214c.17-.054.35-.1.528-.15-2.052.049-4.04.1-5.885.146a3.478,3.478,0,0,0-1.09-.736c2.488-.1,5.277-.168,8.166-.218,1.077-.248,2.212-.507,3.612-.828Zm3.178-7.488h-.664v-.77h.664Zm16.028,8.852c-.262.012-.556.026-.852.038-.366-.122-.724-.244-1.062-.358.708.006,1.35.014,1.914.022Zm-.135,7.488-1.117.282-.267-.194c1.814-.146,3.5-.32,2.861.842C966.494,1166.647,966.01,1166.341,965.505,1166.023Zm3.8-16.274h-4v-.386h4Zm.07,2.408c.463.018.965.064,1.43.1-.447.342-.919.71-1.43,1.106Zm.573-1.54.562.292c-.178-.014-.364-.026-.562-.04Zm6.828,2.688h-1.4v-.258h1.4Zm3.383,13.417h-2.865c-.045-.122-.088-.244-.135-.368q1.406-.15,2.813-.3C980.036,1166.276,980.1,1166.5,980.159,1166.722Zm4.3-13.6h-.664v-.771h.664Zm4.829,13.37c.335.082.667.16,1,.24-.346.136-.694.272-1.04.41a8.466,8.466,0,0,1,1.892.43l-.656.244-1.446-.63c.133-.052.27-.1.4-.152-1.417.074-2.642.04-4.3,0,.046-.27.09-.508.131-.744,1.344.066,2.681.136,4.019.206Zm1.89-14.206h-1.992v-.256h1.992Zm6.942,15.946c-.8-.4-1.06-.718-1-.966.631.058,1.293.116,1.992.178C998.787,1167.7,998.462,1167.96,998.118,1168.232Zm5.335-4.9c-3.283.114-4.059.136-4-.372l1.07-.422Zm13.829-1.37c.04.013.076.03.116.043l.136-.044h.52v.256h-.6l-.4-.256Zm22.126-11.317h-1.992v-.258h1.992ZM1052.532,1181l-.186-.666h2.865l.135.366Zm-2.234-.228-7.427,1.265c-1.276-.713-2.264-1.269-3.573-2C1043.356,1180.308,1046.46,1180.516,1050.3,1180.773Zm-15.14.165.1.66h-2.883c-.04-.128-.076-.254-.117-.38Q1033.707,1181.077,1035.158,1180.938Zm-5.887-1.123v2l-4-1.716Zm27.686,5.71H1030c-1.031.587-2.156,1.223-4.04,2.292v-4c2.024.37,3.587.655,5.316.973,4.12-.767,8.482-1.644,12.9-.013,3.918-1.423,8.365-.515,12.78-.831Zm6.443-4.582h-6l5.147-1.638C1062.933,1180.043,1063.11,1180.387,1063.4,1180.943Zm7.153-1.893c1.073-.282,2.331-.616,3.815-1.008,1.978.405,4.084.835,7.106,1.456-4.161.044-6.98,1.194-10.733.31-.881-.207-3.123.565-6.267,1.192,1.01-1.3,1.575-2.03,2.33-3,1.513.424,2.368.662,3.749,1.05Zm20.6,5.227-4.716.421-1.134-.274-3.6.55-2.222-.465c-2.33-.23-3.621,1.282-6.717.345-.812-.246-3.58.227-5.473.27-2.53.057-5.076.014-8.138.014.169-.525.284-.881.474-1.478,1.962.319,3.268.533,3.656.6,2.684-.15,4.765-.222,6.762-.392,1.732-.15,3.37-.41,5.585-.689,1.054.3,1.73.483,2.348.658.81-.223,1.528-.417,2.452-.67,1.593.256,3.194.514,4.86.78l2.5-.652,3.36.985ZM1096,1182.8c-1.3.356-2.382.654-3.75,1.026m1.453,8.02c-1.09-.257-2.358-.552-3.762-.881l-2.264,1.985c-1.736-.356-3.343-.682-5.129-1.047-.73.219-1.469.444-2.727.823l-6.007-2.621c4.321-.577,7.625-1.018,11.069-1.476v-1.2c2.3-.376,4.7-.772,9.013-1.482l-5.8,3.008c2.148.462,3.7.8,5.924,1.278.989.071,3.247-1.846,4.792.394l-5.11,1.215Zm-9.01,3.91a2.7,2.7,0,0,1,1.34.08c-.209.083-.42.163-.629.245l-.712-.324Zm-8.284.333a9.725,9.725,0,0,0,1.821-.843c.48-.389.6-.85,1.146-1.694l5.033,1.694q-.979.384-1.957.771C1078.328,1196.855,1077.634,1196.582,1076.407,1196.093Zm-3.88-3.948c.1,0,.2,0,.3,0a.062.062,0,0,0,0,.018,13.543,13.543,0,0,1,3.7,1.717l-3.2.265-.8-2Zm-.16-2.05.309,1.545c-1.575-.012-2.622-.04-3.719-.074l-.281-1.312,3.69-.16Zm-50.22-10.369v1.28l-.95.06-.772-1.256,1.722-.084Zm-12.968,1.214c-.7.278-1.684.672-2.556,1.02l-.444-1.02Zm-9.164,3.047a12.758,12.758,0,0,1,1.788.658,5.847,5.847,0,0,1,1.113.985c-.464.12-.931.238-1.4.357l-2.6-1.653,1.1-.347Zm-6.414.284h.664v.454c-.218-.032-.446-.048-.664-.078Zm-.774,3.027.254.085c.451-.062.948-.12,1.435-.187,1.017.107,2,.213,3.223.344q4.23-.354,8.459-.7c.227-.405.406-.724.9-1.613,1.33,1.015,2.146,1.638,2.958,2.26,2.523-.848,3.873-1.3,5.224-1.754.534.192.995.356,2.194.784q.915-.984,1.84-1.972c.8.137,1.6.277,2.4.414l3.117,2.595-32,.991Zm-12.6-2.393h-.662v-.772h.662Zm-12.442.83h-1.992v-.255h1.992Zm-14.178.507-.98.052-.728-1.288,1.708-.042Zm-5.907.089h-4v-.386h4Zm-50.13-9.21h-.664v-.773h.664Zm-8.272-.217a12.447,12.447,0,0,1,1.789-.66l1.1.348q-1.3.825-2.6,1.652l-1.4-.356A5.937,5.937,0,0,1,889.3,1176.9Zm-4.815-4.476-.237.544-1.248.06c-.552-.218-1.087-.432-1.515-.6Zm-14.9-.241,1.72.084-.774,1.254q-.473-.027-.946-.058Zm28.552,7.5-32-.993,3.117-2.592,2.4-.415,1.84,1.973,2.193-.785,5.22,1.754c.814-.623,1.632-1.244,2.957-2.259.5.887.678,1.206.9,1.61l4.893.407c.025.085.047.169.073.255h2.98c.168.012.353.029.513.041l.4-.041h4.512Zm-80.546,4.424.309-1.546,3.69.158c-.11.514-.18.85-.28,1.314-1.1.032-2.145.062-3.72.074Zm-3.133,1.747a13.61,13.61,0,0,1,3.7-1.718l.006-.016.3,0c-.256.641-.511,1.283-.8,2l-3.2-.266Zm-8.16,1.534c1.411-.475,2.823-.947,5.033-1.693.546.846.668,1.306,1.148,1.695a9.772,9.772,0,0,0,1.82.842c-1.226.49-1.92.762-6.043-.072q-.98-.387-1.957-.772Zm-1.76.89a2.7,2.7,0,0,1,1.336-.078c-.238.108-.474.214-.708.322C804.955,1188.44,804.745,1188.36,804.537,1188.278Zm298.762-4.926h-2.865l-.135-.366q1.406-.147,2.813-.3Zm.5,6.883h-1.992v-.256h1.992Zm27.38-1.96c1.89,1.562-.595,2.885-2.262,4.265-.951-.258-1.9-.515-2.916-.787l-3.43.776c-2.656-1.028-5.083-1.966-7.713-2.982,3.534-.583,7.891-1.3,12.149-2.007l4.172.734Zm35.665,2.693h10c-1.282.676-1.825,1.262-2.718,1.374-2.164.274-5.032-.462-7.282.544Zm27.341-2.387,1.01-.04q.375.968.754,1.933l-1.764.067Zm28.886,1.061v1.326l-.8.244c-.444-.582-.886-1.166-1.2-1.57Zm19.353,1.569h-.664v-.772h.664Zm21.022-2.838c-.454-1.3-.72-2.057-1.024-2.921l4-.08c-.86.868-1.6,1.616-2.976,3Zm6.18,1.524.542,1.134c-2.562.6-4.158.586-3.987-1.134Zm19.908-3.716h-1.992v-.256h1.992Zm34.879.341c-.93-.48-1.681-.87-2.757-1.428,2.829-.532,5.822-.154,9,.2-2.04.4-4.077.806-6.243,1.232Zm13.477,1.34h-.664v-.772h.664Zm2.59.879h-1.992v-.256h1.992Zm14.648-3.683h-.664v-.772h.664Zm35.009-3.622-6,.462,5.219-1.96c.34.652.515.992.78,1.5Zm57.48-5.252h-1.992v-.256h1.992Zm4.2-1.316c.316-.022.632-.04.946-.06l.776,1.254-1.722.084Zm-34.939,14.058-.431.15a7.239,7.239,0,0,1,2.2.378l-.694.242-1.537-.63c.144-.05.287-.1.431-.15a7.306,7.306,0,0,1-2.2-.376l.694-.244Zm7.25,1.33h-1v-1.542h1Zm8.485.271H1429.3q-.341-.182-.681-.368c1.32-.244,2.639-.49,4-.74Zm5.315.32h-.664v-.772h.664Zm5.223-.263h-1v-1.542h1Zm8.555-1.088h-4v-.386h4Zm-1013.18-7.96-.693-.241a7.224,7.224,0,0,1,2.2-.376l-.432-.15,1.539-.63.693.242a7.242,7.242,0,0,1-2.2.376q.215.078.431.15c-.514.212-1.025.42-1.538.63Zm-4.25.652h-1v-1.542h1Zm-9.551.293v-1.11l4,.742-.681.368Zm-4.72.34h-.665v-.772h.664Zm-5.82-.033h-1v-1.542h1Zm-5.481-1.067h-4v-.386h4Zm-30.7-2.863c.28-.022.56-.046.842-.07l.69,1.482-1.532.092ZM1459.07,36.24,1459,36.2v.069Zm-32.41-9.185c1.223-1.61,4.383-1.075,7.575-1.15l.425,1.923-6.083,1.05C1428.1,28.419,1427.43,27.787,1426.66,27.055Zm-6.695.529c-1.261.345-2.657.725-4.154,1.133l-1.99-.835-3.55.981-3.645-3c3.968.38,6.718.744,9.51.88,2.75.13,5.54.028,9.49.028-1.71.926-2.312,1.25-3.234,1.751-.662-.254-1.4-.54-2.427-.938Zm-6.99,8.45c-1.938.46-3.075.728-3.708.878a7.305,7.305,0,0,1-.293-.878Zm-11.516-9.394L1400,28.574c-3.254.879-2.46-.948-3.5-1.553l-2.689.858c-1.114-.34-2.255-.69-3.508-1.07-1.14.362-2.267.722-3.615,1.152-.86-.35-1.68-.685-2.227-.91-1.8.655-3.5,1.27-5.887,2.134V26.013c2.947.551,5.038-1.256,8.276-.188,2.08.683,5.54.216,8.358.1,2.352-.1,4.675-.428,7.878-.74,1.019.343,3.214.763,2.247,2.545l-3.879-1.09Zm-26.865,1.239h1.772v.3h-1.772Zm-6.461.206h.59v.908h-.59Zm-16.375.266q-2.665-1.225-5.334-2.449c3.489,0,7.349-.619,9.446.146,3.1,1.137,4.957-1.107,7.77.031.492,1.261,1.069,2.746,1.783,4.587-3.891-.758-8.226-.868-11.41-3.23-1.314.532-1.961.8-2.255.915Zm-13.873,1.17c-.21-.847-.57-1.388-.428-1.893.5-1.79,2.92-2.167,6.562-1.958.1,1.02.213,2.095.406,3.948-1.47-.71-2.032-.98-2.557-1.231l-3.983,1.133Zm-8.521-.95c-2.14,1.816-5.959-1.4-7.776,1.016l-4.234-2.945h18.675c-.062-.033.363.147.323.193-.811.914-1.679,1.812-2.62,2.8a36.363,36.363,0,0,0-4.368-1.067Zm-18.692-1.014-1.857,2.329q-.867-.27-1.732-.536c-.222-.738-.446-1.476-.73-2.408l-3.82-.174-4.66,2.285c-2.64.4-4.15.625-6.25.942l-3.316-2.12c6.212-.54,12.15-2.234,18.745-1.814,3.307.21,6.449,1.055,11.255,1.891l-4.885.957c-.182-.091-1.188-.584-2.75-1.352Zm-41.462,1.3c-.447.23-1.074.55-1.958,1-.885-.231-1.854-.488-2.985-.785-2.732.387-5.742.815-9.41,1.333l-1.69-1.293-16.942,1.843c-1.24-1.077-2.09-1.816-3.091-2.688l11.964-1.312c.386.2,1.01.518,1.637.836.4-.22.81-.64,1.22-.64,12.4-.036,24.805-.028,37.545-.028.092.167.332.588.634,1.117l-11.8,2.164c-1.371-.413-3.221-.973-5.122-1.548Zm-40.936,1.128-3.856,1c-1.041-.326-1.947-.607-3.2-1-4.085,1.609-8.518,1.138-12.754-.031a4.949,4.949,0,0,1-5.388.316,52.463,52.463,0,0,1-7.559,1.374c-1.737.075-3.623-.81-5.525.073a4.659,4.659,0,0,1-1.454-.245c-.686-.193-1.312-.436-2.1-.7-2.011,1.424-5.036.093-6.793.63-2.5.767-5.958-.415-7.757,1.086-2.445-1.828-4.753.387-6.756.111-1.184-.407-2.059-.7-2.127-.728-3.045.29-5.152.665-7.246.65-2.32-.018-5.568-.948-6.754-.5-2.911,1.107-4.58-1.44-6.646-.257s-4.715.848-7.13.764c-3.513-.12-7.371.712-10.492-.711-5.6,1.574-11.706.579-17.558.7a90.04,90.04,0,0,0-14.241,1.4,4.476,4.476,0,0,1-1.063-.463l-2.31.74c-2.344.591-3.232-1.64-6.508-.513a4.19,4.19,0,0,1-1.247.2q-1.529-.22-3.07-.345a11.192,11.192,0,0,0-3.09-.156c-1.6-.03-3.24-.01-4.93.094a.063.063,0,0,1-.014.01c-.982-.022-1.982-.05-3-.05v-1.5c1.141.343,1.806.543,2.7.811l4.174-1.785a3.6,3.6,0,0,1,1.635.736,17.423,17.423,0,0,1,2-.469,26.551,26.551,0,0,0,6.195-.381,83.431,83.431,0,0,0,10.357-.14c.32-.21,1.284-.852,1.6-1.06,1.733.12,3.092.272,4.323.359l.068.458c1.89.292,1.316-.6,3.788-.284,5.94.761,12.157,1.644,9.438.43-4.362-.3-6.725-.466-8.036-.568q1.267.015,2.535.046c1.213.134,2.96.3,5.5.523,10.06.35,10.744.1,11.024,0l-.188-.525c.712-.316,1.28-.566,1.8-.8a5.648,5.648,0,0,0,1.9.766c7.223.056,14.5.25,21.642-.1a29.432,29.432,0,0,1,5.538.12c1.978.256,4.037.376,6.22.569.846-.405,1.86-.894,3.269-1.571,3.193.283,6.683.594,10.2.908.488-.194,1.076-.429,1.467-.583,1.111.318,2.029.583,2.96.848,1.707-.708,3.156-1.311,4.39-1.822,2.195.322,3.961.618,5.773.84,6.736.822,13.47-1.586,20.265-.028a8.909,8.909,0,0,0,2.225-.36,45.9,45.9,0,0,1,14.559.08l4.683-.666c-.2,1.168-.323,1.9-.465,2.735-1.342-.472-2.207-.777-2.964-1.042Zm-167.918,3.6.532-1.2,4.468.362c-1.853.652-2.837,1-3.822,1.346Zm-5.843-.255v-1.28l1.722.084-.774,1.254c-.316-.018-.632-.038-.948-.058Zm-6.12-1.157h1.992v.256h-1.992Zm-62.786-6.1,6,.462-.783,1.5C989.254,27.43,988.191,27.032,985.607,26.06Zm-29.115-3.633h.664V23.2h-.664ZM941,19.643H943V19.9H941Zm-1.4.6h.664v.77H939.6Zm-13.023.732,6.243,1.232c-3.176.35-6.17.73-9,.2C924.9,21.846,925.654,21.458,926.581,20.976Zm-36.87,1.095H891.7v.256H889.71Zm-21.732-3.583c-.169-1.722,1.425-1.734,3.988-1.136-.192.4-.36.742-.545,1.136Zm-3.224.966c1.375,1.385,2.117,2.13,2.977,3-1.356-.03-2.286-.045-4-.081C864.037,21.508,864.3,20.751,864.755,19.454ZM843.627,16.54h.666v.772h-.666Zm-18.758,1.77h-2c.31-.405.752-.987,1.2-1.57.27.08.535.163.8.243ZM796.84,19.666V17.7q.885.03,1.766.065l-.754,1.935-1.012-.039Zm-27.988-2.675V15.075c2.25,1,5.118.268,7.283.542.891.114,1.434.7,2.717,1.374Zm-40.114,3.645c-4.26-.7-8.615-1.424-12.152-2.007l7.715-2.983c.676.153,1.965.447,3.429.778,1.014-.275,1.965-.531,2.918-.788,1.665,1.381,4.151,2.7,2.258,4.266l-4.168.734Zm-24.205-2.492h1.992V18.4h-1.992Zm-1.491,7.11.135-.367h2.865l-.187.666-2.813-.3Zm-47.362-6.4c1.621.842,3.027,1.573,5.78,3.006-4.3-.708-6.7-1.1-8.986-1.483v-1.2c-3.431-.458-6.728-.9-11.035-1.474,2.549-1.116,4.327-1.9,5.988-2.624l2.721.823c1.779-.362,3.38-.691,5.114-1.045.8.7,1.424,1.251,2.255,1.984,1.4-.33,2.665-.625,3.753-.879,1.751.417,37.543.829,39.169,1.216-1.542,2.238-37.865.32-38.851.394l-5.908,1.278Zm4.326,5.06c4.688-.876,4.144.044,3.75,1.026m-10.638-.8-4.858.782-2.453-.669-2.347.656c-2.216-.278-3.855-.538-5.585-.687-2-.172-4.08-.244-6.764-.392l-3.655.6-.474-1.48c3.06,0,5.607-.041,8.134.014,1.9.043,4.664.517,5.476.27,3.1-.936,4.388.574,6.717.347l2.222-.468c1.611.247,2.7.414,3.6.551l1.132-.273,4.716.422-3.359.983Zm-14.365,4.616c-1.383.388-2.238.629-3.752,1.05l-2.329-3c3.144.627,5.386,1.4,6.267,1.192,3.753-.883,6.572.268,10.733.313l-7.106,1.453-3.813-1.008Zm-13.085-1.64h6c-.288.555-.467.9-.853,1.635-1.656-.528-2.748-.874-5.147-1.636Zm-.6-3.662c-4.416-.316-8.863.591-12.782-.831-4.422,1.633-8.784.752-12.905-.01-1.73.315-3.294.6-5.313.972v-4c1.88,1.066,3.005,1.706,4.04,2.292h26.96Zm-5.378,4.29c.063-.223.123-.445.186-.667l2.814.3c-.045.122-.088.244-.135.366Zm-9.475-.964,7.427,1.264-11,.736Zm-9.433-.028h2.885l-.095.66q-1.452-.141-2.905-.28C600.7,27,600.738,26.879,600.778,26.753Zm-3.1-1.123v2l-4-.283,4-1.717Zm17.37,7.986c-1.047-.153-.655-.462-.373-.447s.556.058.832.092c.84-.792.08-1.265-.683-1.738-1.133.328-2.095.61-3.332.967-1.079-.343-2.04-.647-3-.954l-2.8,1.167c.625.285,1.25.57,2.443,1.118-2.94.062-5.373.11-7.181.147-1.527-1-2.681-1.76-4.193-2.75-.581.733-.949,1.193-1.316,1.66-3.454-.972-7.25.253-10.943-.324-.433-.068-1.089-.128-1.883-.19q-1.132-1.557-2.267-3.113l2.713.409a2.552,2.552,0,0,1,.807-.469c.27.08.525.154.8.235l.656-.458c2.52.066,5.748,1.727,7.744.172,2.782,1.619,7.17.33,10.775,1.046,3.535.7,8.113.481,13.243.713.371.145,1.521.588,3.258,1.259a39.61,39.61,0,0,1-4.147,1.184c.409.06.816.125,1.227.183-1.184.14-2.371.28-2.383.091Zm-34.713-1.4c-1.555-.1-3.232-.239-4.752-.433V30.521H570.4c.632.566,1.241,1.107,1.858,1.658-.315.085-.647.175-1.005.274-3.93-1.03-8.4-.918-12.926-.8l.213-.153c-1.282-.236-2.748-.5-5.682-1.047-.344,0-1.5.008-2.624.032a9.141,9.141,0,0,1-1.275.607l-.627-.222,1.622-.492c.127.048.256.094.28.107-.1-.268-.1-.5-.193-.7a17.347,17.347,0,0,1-1.709-.455l.627-.222,1.38.576c-.129.046-.258.092-.3.1,1.315-.037,2.539-.037,3.665-.037.21-.492.387-.905.557-1.3l1.893.236-.2.078,10.808,2.587c1.043-.758,1.874-1.36,2.728-1.977a22.4,22.4,0,0,0,6.18-.333l4.655.6ZM566.2,41h-1.718c.355-.14.71-.285,1.061-.434L566.2,41ZM556.69,23.368,555.3,23.28c-.108-.066-.2-.116-.3-.18.266-.254.538-.518.812-.784l.88.224ZM529.868,20.93c-2.835-.937-6.5-.613-9.647-1.072a5.6,5.6,0,0,1-1.29-.458c-4.472,1.491-8.814.762-13.792-.192-.773.423-1.687.925-3.014,1.654h7.907c-.482.477-.6.8-.861.82-3.286.269-6.592.494-10.728.79l1.363-2.08c-.247-.044-1-.185-2.24-.412l-3.679,3.1,4.3.285c-.106.02-.2.027-.31.047-3.094.645-7.64.133-11.543.133a25.607,25.607,0,0,0-4.814.04c-8.082,2.077-17.821-.65-25.47,1.647-1.27-.4-2.23-.7-3.056-.952-3.63.68-8.949.818-10.685,1.084-3.667.56-7.436-.63-10.866.314l-1.306-1.61-4.164,2.668-7.131-.145c1.185-.528,1.807-.805,2.425-1.082l-2.777-1.132-2.98.925c-1.228-.349-2.186-.62-3.31-.937-.757.458-1.51.917-.679,1.683.275-.03.548-.07.826-.087s.67.283-.37.434c-.012.184-1.191.048-2.367-.089.408-.055.813-.12,1.219-.177a40.38,40.38,0,0,1-4.118-1.149c1.724-.65,2.866-1.082,3.237-1.223,5.093-.223,9.641-.012,13.147-.692,3.579-.694,7.938.556,10.7-1.012,2.664,2.027,7.532-1.582,9.94.5,2.785-.41,5.507-.814,7.951-1.175.33.076.64.1.96.16l-.338.112h1.017a21.524,21.524,0,0,0,5.429,0h.727c-.017-.026-.03-.051-.049-.078q1.042-.137,2.08-.3c.436.592,2.113.923,3.579,1.4l4.3-1.4c-1.133-.2-2.208-.385-3.27-.568q.922-.07,1.847-.073l1.47.554c3.712-.531,7.461-1.068,11.2-1.6l11.256,1.192-2.847-1.49,17.84-.99,2.1.441c2.425-.36,4.652-.69,6.812-1.012.533.03,1.06.07,1.648.054,1.436-.042,2.86-.031,4.283-.015.314.091.622.18.944.275l1.09-.234a105.343,105.343,0,0,1,14.566,1.455,8.585,8.585,0,0,0,1.886.053c6.425-.417,12.258.82,18.5,1-1.068,1.353-3.693,1.686-5.908,1.54-.44-.274-.877-.542-1.32-.817a6.175,6.175,0,0,1-1.109.477,45.594,45.594,0,0,0-11.358-.52c-3.175.184-6.108-1.357-9.145-.079Zm-3.376,5.817c.989.05,1.981.1,3,.148a7.669,7.669,0,0,1-1.644.174C527.334,26.949,526.866,26.837,526.492,26.747Zm-6.05-5.478.98.054v.058c-.378.048-.76.1-1.126.146ZM521.5,26.24l4,.234-4,.476Zm-4.8-.262.816.116v.142h-1.992v-.258Zm-4.894-4.264h4V22.1h-4Zm-8.55,18.512a3.914,3.914,0,0,0,.494-.082c0,.06-.176.12-.494.178Zm-2.67-.22h1.922c-.547.06-1.221.12-2,.176.023-.056.052-.12.077-.176Zm17.27.994h-.924l.427-.176Zm-24.293-7.028,1.117-.282.267.194c-1.814.146-3.5.32-2.861-.842C492.574,33.348,493.058,33.654,493.563,33.972Zm-14.654-.7h2.865c.045.122.088.244.135.368q-1.406.15-2.813.3C479.032,33.719,478.971,33.495,478.909,33.273Zm-9.127.23c-.335-.082-.667-.16-1-.24.346-.136.694-.272,1.04-.41a8.467,8.467,0,0,1-1.892-.43l.656-.244,1.446.63c-.133.052-.27.1-.4.152,1.417-.074,2.642-.04,4.3,0-.046.27-.09.508-.131.744-1.344-.066-2.681-.136-4.019-.206Zm-8.832-1.74c.8.4,1.06.718,1,.966-.631-.058-1.293-.116-1.992-.178.325-.26.65-.516.994-.788Zm-5.335,4.9c3.284-.114,4.059-.136,4,.372l-1.07.422-2.927-.794Zm-13.829,1.37c-.04-.013-.076-.03-.116-.043l-.136.044h-.52v-.256h.6l.4.256Zm-35.25-19.037.186.666h-2.865l-.135-.366,2.814-.3Zm2.234.228,7.427-1.265c1.276.713,2.264,1.269,3.573,2C415.712,19.687,412.608,19.479,408.77,19.222Zm15.14-.165-.1-.66H426.7c.04.128.077.254.117.38Q425.361,18.918,423.91,19.057ZM429.8,20.18v-2l4,1.716Zm-27.686-5.71h26.96c1.031-.587,2.156-1.223,4.04-2.292v4c-2.024-.37-3.587-.655-5.316-.973-4.12.767-8.482,1.644-12.9.013-3.919,1.423-8.366.515-12.78.831Zm-6.443,4.582h6l-5.147,1.638C396.135,19.952,395.958,19.608,395.668,19.052Zm-7.153,1.893c-1.073.282-2.331.616-3.815,1.008-1.978-.405-4.084-.835-7.106-1.456,4.161-.044,6.98-1.194,10.733-.31.881.207,3.124-.565,6.267-1.192-1.01,1.3-1.575,2.03-2.33,3-1.513-.424-2.368-.662-3.749-1.05Zm-20.6-5.227,4.716-.421,1.134.274,3.6-.55,2.222.465c2.328.23,3.62-1.282,6.716-.345.812.246,3.581-.227,5.474-.27,2.528-.057,5.075-.014,8.137-.014-.169.525-.284.881-.474,1.478-1.962-.319-3.268-.533-3.656-.6-2.684.15-4.764.222-6.762.392-1.732.15-3.37.41-5.585.689-1.054-.3-1.73-.483-2.348-.658-.81.223-1.528.417-2.452.67-1.593-.256-3.194-.514-4.86-.78l-2.5.652-3.36-.985Zm-4.844,1.473c1.3-.356,2.382-.654,3.75-1.026m-1.453-8.02c1.09.257,2.358.552,3.762.881l2.264-1.985c1.736.356,3.343.682,5.129,1.047.73-.219,1.469-.444,2.728-.823l6.006,2.621c-4.321.577-7.625,1.018-11.069,1.476v1.2c-2.3.376-4.7.772-9.013,1.482l5.8-3.008q-2.962-.636-5.924-1.277c-.989-.072-3.246,1.845-4.792-.395l5.111-1.215Zm9.01-3.91a2.7,2.7,0,0,1-1.34-.08c.209-.083.42-.163.629-.245l.712.324Zm8.284-.333a9.719,9.719,0,0,0-1.821.843c-.48.389-.6.85-1.146,1.694l-5.033-1.694q.98-.384,1.957-.771c4.122-.834,4.816-.561,6.043-.072Zm3.88,3.948c-.1,0-.2,0-.3,0a.066.066,0,0,0,0-.018,13.542,13.542,0,0,1-3.7-1.717l3.206-.265.794,2Zm.16,2.05-.309-1.545c1.575.012,2.622.04,3.719.074l.281,1.312-3.69.16Zm50.22,10.369v-1.28l.95-.06.772,1.256-1.722.084Zm12.968-1.214c.7-.278,1.684-.672,2.556-1.02l.444,1.02Zm9.164-3.047a12.764,12.764,0,0,1-1.788-.658,5.847,5.847,0,0,1-1.113-.985c.464-.12.931-.238,1.4-.357q1.3.825,2.6,1.653Zm6.414-.284H464.8V15.27c.218.032.446.048.664.078Zm.774-3.027-.254-.085c-.451.062-.948.12-1.435.188q-1.612-.171-3.223-.345-4.228.354-8.458.7c-.228.4-.407.724-.9,1.613-1.33-1.015-2.146-1.638-2.958-2.26-2.523.848-3.873,1.3-5.224,1.754-.534-.192-.995-.356-2.194-.784q-.915.984-1.839,1.972c-.8-.137-1.6-.277-2.4-.414l-3.117-2.6,32-.991Zm12.6,2.393h.662v.772h-.662Zm12.443-.83h1.992v.255h-1.992Zm14.177-.507.98-.052.728,1.288-1.708.042Zm5.907-.089h4v.386h-4Zm50.13,9.21h.664v.773H561.5Zm8.272.217a12.434,12.434,0,0,1-1.789.66l-1.1-.348q1.3-.825,2.6-1.652l1.4.356A5.934,5.934,0,0,1,569.769,23.091Zm4.815,4.476.237-.544,1.248-.06c.552.218,1.087.432,1.515.6Zm14.9.241-1.72-.084.774-1.254c.316.018.632.038.946.058Zm-28.552-7.5,32,.993L589.815,23.9l-2.4.415-1.839-1.973-2.194.785-5.22-1.754c-.814.623-1.632,1.244-2.957,2.259-.5-.887-.678-1.206-.9-1.61l-4.893-.407-.072-.255h-2.981c-.168-.012-.353-.029-.513-.041l-.4.041h-4.512Zm80.547-4.424-.31,1.546-3.69-.158c.11-.514.18-.85.281-1.314,1.1-.032,2.144-.062,3.719-.074Zm3.132-1.747a13.611,13.611,0,0,1-3.7,1.718l-.006.016-.3,0c.256-.641.512-1.283.8-2l3.2.266Zm8.16-1.534c-1.41.475-2.823.947-5.033,1.693-.546-.846-.668-1.306-1.148-1.695a9.771,9.771,0,0,0-1.82-.842c1.226-.49,1.92-.762,6.043.072q.98.387,1.957.772Zm1.76-.89a2.7,2.7,0,0,1-1.336.078c.238-.108.474-.214.708-.322.21.082.42.162.628.244ZM355.769,16.643h2.865l.135.366q-1.406.147-2.813.3-.093-.336-.187-.666Zm-.5-6.883h1.992v.256h-1.992Zm-27.38,1.96c-1.89-1.562.6-2.885,2.262-4.265.951.258,1.9.515,2.916.787l3.43-.776c2.656,1.028,5.084,1.966,7.713,2.982-3.534.583-7.891,1.3-12.149,2.007l-4.172-.734ZM292.22,9.028h-10c1.282-.676,1.825-1.262,2.718-1.374,2.164-.274,5.032.462,7.282-.544Zm-27.341,2.387-1.01.04q-.375-.968-.754-1.933l1.764-.067Zm-28.886-1.061V9.027l.8-.244c.444.582.886,1.166,1.2,1.57ZM216.64,8.784h.664v.772h-.664Zm-21.022,2.838c.454,1.3.72,2.057,1.024,2.921l-4,.08c.86-.868,1.6-1.616,2.976-3Zm-6.18-1.524L188.9,8.964c2.562-.6,4.158-.586,3.987,1.134ZM169.53,13.814h1.992v.256H169.53Zm-34.879-.341c.93.48,1.681.87,2.757,1.428-2.829.532-5.822.154-9-.2,2.04-.4,4.077-.806,6.243-1.232Zm-13.477-1.34h.664v.772h-.664Zm-2.59-.879h1.992v.256h-1.992Zm-14.648,3.683h.664v.772h-.664ZM68.927,18.56l6-.462-5.218,1.96C69.369,19.406,69.193,19.066,68.927,18.56Zm-57.48,5.252h1.992v.256H11.447Zm-4.2,1.315c-.316.022-.632.04-.946.06l-.776-1.254,1.722-.084ZM42.188,11.07l.431-.15a7.249,7.249,0,0,1-2.2-.378l.694-.242,1.537.63c-.144.05-.287.1-.431.15a7.308,7.308,0,0,1,2.2.376l-.694.244Zm-7.25-1.33h1v1.542h-1Zm-8.485-.271h3.319c.228.122.455.244.681.368-1.32.244-2.639.49-4,.74Zm-5.315-.32H21.8v.772h-.664Zm-5.223.263h1v1.542h-1ZM7.36,10.5h4v.386h-4Zm1013.18,7.96.692.241a7.227,7.227,0,0,1-2.2.376l.432.15-1.539.63-.693-.242a7.245,7.245,0,0,1,2.2-.376q-.214-.078-.43-.15c.513-.212,1.024-.42,1.538-.63Zm4.25-.652h1V19.35h-1Zm9.55-.293v1.11l-4-.742.681-.368Zm4.721-.34h.664v.772h-.664Zm5.82.033h.995V18.75h-1Zm5.48,1.067h4v.386h-4Zm30.7,2.863c-.28.022-.56.046-.842.07l-.69-1.482,1.532-.092ZM19,1118H.068v45.728l1.284-.6.32.176c.04-.41.424-.658.807-.9l.521.286-1.352.632c-.1-.06-.212-.118-.32-.178-.038.412-.423.658-.805.906l-.455-.25v8.411c.388-.139.751-.266,1.126-.4.482.732.821,1.245,1.14,1.726,1.087,0,1.95,0,2.817-.022v-1.349l11.707-1.986c1.583,1.14,3.483,2.5,5.738,4.127-4.512.247-8.97.055-14.18.147.843-.682,1.314-1.059,2.463-1.988-2.545.455-4.151.743-5.728,1.05a6.321,6.321,0,0,1-2.237.86,24.693,24.693,0,0,0-2.846.045v6.1c1.641-.21,3.457-.88,4.5.12l12.5-.566c.185.073.738.287,3.237,1.257.463-.994.906-1.949,1.286-2.768,3.336.884,5.713,1.511,8.111,2.147l2.942-1.012,4.17,1.065c.842-.379,1.473-.665,2.324-1.047,1.544,1.713,3.358.888,5.036.15l2.571.885,3.361-1.027c1.914.417,3.287.715,4.7,1.025l1.452-2.116,3.524.97c2.067-.556,4.2-1.132,5.938-1.6,1.392.714,2.59,1.325,3.914,2,4.562-.318,8.63-.6,13.112-.918.14.067.765.36,1.288.6.89-.335,1.763-.66,2.51-.941,1.536.43,2.7.759,3.846,1.078,4.269-1.739,8.415-1.02,12.413.036l1.992-.914a12.766,12.766,0,0,0,2.795.767c2.29.113,4.622.078,6.928.023a37.033,37.033,0,0,0,6.615-.386c2.359-.522,4.261,1.178,5.708.345,2.273-1.3,4.45.524,5.481-.016,2.273-1.182,3.79.361,5.638.075a44.049,44.049,0,0,1,6.219-.83,31,31,0,0,1,5.241.8,20.542,20.542,0,0,1,3.73-.83c12.463-.458,25.092.89,37.432-.92,2.1,1.27,4.919-.487,6.213.1,2.88,1.31,4.753-.722,7.446-.175,3.006.612,6.828-.623,9.74.827,6.764-1.615,13.927-.325,20.846-.786a6.334,6.334,0,0,0,1.96-.81l2.4.995,4.407-1.275c1.3,2.827,5.64-.769,7.8,1.1a5.146,5.146,0,0,0,1.473-.23,7.788,7.788,0,0,0,1.244-.615c.62.286,1.241.574,2.147,1,1.3-.331,2.734-.694,4.128-1.05l2.663.758a111.161,111.161,0,0,1,24.958-.216l2.457-1.365c2.436-.425,4.36,2.006,6.73.14a6.165,6.165,0,0,0,5.493.115l3.834.857c1.047-.737,2.028-1.43,3.3-2.333,1.7,2.257,3.638.6,5.434.482l3.407,1.743c1.053-.69,2.1-1.382,3.084-2.027,3.875.17,7.368.325,11.284.5l1.986,1.018c3.75-.371,7.162-1.2,10.143-.906a112.253,112.253,0,0,0,21.161-.226c4.187-.364,8.229-.684,11.262.337l9.323-.754a11.9,11.9,0,0,1,1.226.164c2.633.494,6.412.208,9.634.079,5.113-.2,10.352.257,15.463.064v1.436l1.486-.05c-.2-.472-.4-.942-.6-1.415a38.369,38.369,0,0,0,5.44-.647c4.977,1.6,11.953-.43,15.914,1.155l11.844-.7c.54.6.932,1.039,1.663,1.859,1.048-.761,1.887-1.373,2.122-1.544,7.625-.11,13.233-1.425,19.281-.862,2.869.268,5.51.9,8.323,1.378.474-.163,1.149-.392,1.82-.62,1,.385,1.917.742,2.474.955l-2.163,2.492c2.13-.723,2.806-.952,4.84-1.647l-1.963,2.316c-3.673-.1-6.666-.406-9.427-.216-11.907.828-11.876.87-26.581-.71-1.49-.16-3.126-.1-4.67-.207-3.457-.23-6.826,1.139-10.28.806.022-.006.046-.008.071-.014-1.374-.89-2.355-1.53-3.37-2.188-.965.5-1.363.7-1.481.759-1.467-.289-2.779-.544-4.489-.88v1.578c-2.712-.018-5.422-.044-8.132-.053-.9,0-1.808-.016-2.716-.028v-.417c-.522.145-.989.276-1.432.4-2.9-.045-5.789-.066-8.615.05l-1.133-1.561c-1.357.34-2.469.621-3.514.884l-2.242-.865c-.284.389-.525.72-.782,1.075a8.441,8.441,0,0,0-1.74.135,73.412,73.412,0,0,1-7.926.55q-.342-.755-.688-1.509a51.3,51.3,0,0,1-6.948.71c-1.871-.047-3.644,1.71-5.493.094a6.527,6.527,0,0,1-6.538.17,6.262,6.262,0,0,1-5.53.1l-3.087.71c-1.18-.469-2.03-.806-2.56-1.018a46.5,46.5,0,0,1-5.035.886c-6.106.363-12.486-.731-18.359.914-1.86-1.647-5.4,1.057-7.622-.8-.557-.467-4.434-.5-5.71-.006-2.84,1.1-8.51.014-8.906,2.963-.02.14-.7.26-.873.321-1.025-.843-2.027-1.67-2.967-2.447H299.3c-1.108.538-2.33,1.128-3.13,1.514-5.763-1.227-11.3-.44-17.09-.643v3.217c-1.886-1.423-3.01-2.272-4.28-3.233-3.738,0-7.77.024-11.8,0-4.165-.03-8.47.41-12.015-1.008-.893.428-1.516.726-2.467,1.179l-3.263-.963c-1.665,1.484-3.542.575-5.254.033-1.443.9-2.755,1.722-3.144,3.769-1.113,1.23-3,1.23-5.673,1.23l-3.657-2.736,4.828,1.173c3.493-.957,3.493-.957,4.5.333-.921-1.775-.921-2.322-.921-2.64-3.548-.429-6.428-.776-9-1.085l-6.518,1.152v1.944c1.055.2,2.051.382,3.208.6v1.311h-6.485c-.255-1.245-.476-2.337-.659-3.233h-8.112c-1.106.9-2.034,1.653-3.256,2.649l-.778-2.731h-3.106c0,.9,0,1.74.078,2.537a11.715,11.715,0,0,1,1.5.572c-.182.092-.364.187-.549.28l-1.208-.727c.114-.057.224-.115.26-.125-3.735-.1-.258-2.179-2.674-2.594h-3.6c-.555.58-1.089,1.137-1.54,1.611l-3.469-1.082c-2.772,1.83-5.361,3.537-7.9,5.21l2.624,1.343c12.684,0,25.66.037,38.632-.037a51.832,51.832,0,0,0,6.352-.8l2.5.945c2.552-.677,4.925-1.308,7.219-1.918,2.512.669,4.887,1.3,7.271,1.931,3.673-1.978,7.244-.711,10.539.012l2.38-1.123c2.768.411,5.57,1.892,8.9.184.686-.35,3.35.31,4.769.467,4.908-.74,8.1-2.269,8.191-5.118,1.563,1.155,2.775,2.051,4.052,2.992l5.475-.843c1.233.606,2.41,1.182,3.645,1.788l2.718-.943,3.673.806c.7-.841,1.194-1.425,1.383-1.653,3.455.255,6.146.67,8.785.6a26.131,26.131,0,0,1,10.7,1.8c1.681-1.433,3.534-.855,5.28-.082l6.99-2.427c2.7,1.478,6.435,1.884,10.469,1.637,5.3-.326,10.571-.74,15.845-1.161a2.948,2.948,0,0,0,1.113-.565l2.86,1.1,4.288-1.972,1.777.91c2.512-.489,5.334-.91,7.92-1.575,2.768-.708,7.374.64,8.276-1.584-.522-1.147-.978-2.145-1.416-3.1l8.078,1.177-.41.562c-.17-.074-.343-.147-.514-.22-.788.5-1.575.995-2.943,1.856h3.912l-1.589,1.247c.76.292,1.679.649,2.361.913,9.056.49,18.165-.639,27.057.794,1.884-1.243,4.9-.07,7.438-.339,2.9-.31,5.834-.57,9.213-.9l1.945.688a38.123,38.123,0,0,1,19.914-.507c-.574.256-1.155.517-2.67,1.2,7.516-.35,14.134.517,19.049-.475,7.142-.4,12.068,2.269,18.522.424a10.835,10.835,0,0,1,3.8,0c6.044,1.217,12.5.615,18.763.694a42.472,42.472,0,0,0,8.2-.536c2.771-.486,7.78.93,10.537.44,5.061-.9,10.109-.228,13.99-.67a63.8,63.8,0,0,0,6.747-1.33c.373.115,1.03.323,2.114.664,1.875-.317,4.032-.682,6.546-1.11v-3.236c4.875.137,3.722,1.611,3.936,2.71h3.542v-3.577c2.726-.053,5.143-.1,8.534-.16-.63.785-1.037,1.293-1.6,2,1.3.327,3.147.79,5.6,1.408-1.825.51-3.347.933-5.3,1.474l4.553,2.34,6.905-2.46c.818,1.008,1.445,1.785,1.679,2.073,9.5,0,16.95.1,24.373-.035,4.98-.09,10.268.678,14.924-.622,4.13,1.216,9.764.212,13.9,1.414h27.466a17.516,17.516,0,0,0,2.68,1.041c2.039.49,4.25.874,6.455,1.314l3.961-2.27c4.818-.5,9.023,1.809,13.586.136a21.745,21.745,0,0,0,11.227-.615c-.633-.275-1.27-.547-1.908-.822,1.708-1.355,3.39-2.69,5.752-4.56v3.317c3.776.459,8.146-.417,10.04,1.8-.486.616-1.273,1.61-2.06,2.6,1.878.574,1.94-.367,3.627-.433l10.409,1.515,4.212-.982c.822.665,1.442,1.165,2.132,1.727,1.382-.506,2.726-.994,4-1.458,1.246.743,2.5,1.49,3.97,2.364l1.635-1.539c1.088.514,2.177,1.025,4.19,1.976.71-1.3,35.207-2.078,36.04-3.615l1.74,3.4,6.755-1.869a19.574,19.574,0,0,1,4.509.057,34.931,34.931,0,0,0,11.89,1.647l2.94-1.078c1.042.211,2.107.43,3.739.762l3.779-1.576-10.757-1.55,6.21-1.73c2.874.182,5.74.366,9.3.6.906-1.09,1.622-1.953,2.64-3.176h-4.66c-.213.21-.43.417-.643.627-.437-.21-.875-.418-.81-.627h-3.522c-.586.494-1.188,1-1.88,1.59-.636-1.787-.636-1.787,2.166-3.016a27.04,27.04,0,0,1,3.236,1.426h1.453c0-.63,0-1.26,0-1.889,1.608-.623,3.222-1.245,4.109-1.586,8.075.9,16.872-.133,22.971,2.14,1.7-.422,2.724-.68,4.014-1l3.967.861,3.783-.818c4.37.775,4.377.706,11.349.814,2.635.041,5.124,1.128,7.936.157,2.308,1.092,5.457.357,8.177.559,3,.221,6.387-.49,9.1.71.494.217,2.994-.375,4.545-.353,2.781.039,5.57.21,8.31.42,2.366.18,4.655.664,7,.693,1.55.02,3.136-.084,4.906-.217.183.2.365.394.555.6-2.5.158-4.294.272-6.712.423l3.677,2.947c1.235-.218,1.99-.349,2.24-.392-.5-.722-.913-1.318-1.364-1.975,4.134.28,7.438.495,10.723.75.26.021.379.325.861.78h-7.9c1.326.69,2.238,1.166,3.012,1.57,4.975-.906,9.315-1.6,13.786-.184a5.793,5.793,0,0,1,1.287-.433c3.143-.438,6.81-.13,9.642-1.018,3.038,1.212,5.965-.25,9.142-.074a46.708,46.708,0,0,0,11.968-.59,14.519,14.519,0,0,1,3.3-.246,14.867,14.867,0,0,1,1.59.64c.318-.095.606-.18.88-.263a3.91,3.91,0,0,1,1.944,1.1c-6.234.174-12.066,1.349-18.487.95a9.025,9.025,0,0,0-1.884.052,110.4,110.4,0,0,1-20.875,1.405c-3.45-.094-5.815.71-8.748,1.006-.3.03-.367.422-.79.963l2.637,1.22,12.372-1.446c3.77.236,6.471.56,9.144.526,2.35-.03,4.636-.514,7.005-.694,2.738-.21,5.528-.38,8.309-.42,1.551-.021,4.051.573,4.546.353,2.7-1.2,6.094-.488,9.095-.71,2.72-.2,5.867.534,8.177-.558,2.812.97,5.3-.116,7.937-.157,6.97-.108,6.979-.04,11.348-.814l3.783.818c1.474-.32,2.784-.6,3.967-.86l4.014,1c6.1-2.273,14.9-1.243,22.972-2.137.886.339,2.5.962,4.108,1.584,0,.63,0,1.26,0,1.89h1.453a27.344,27.344,0,0,1,3.232-1.427c2.806,1.23,2.806,1.23,2.17,3.015l-1.88-1.588h-3.522c.063.208-.373.416-.81.626-.214-.21-.43-.418-.643-.626h-4.66c1.016,1.224,1.734,2.084,2.638,3.174,3.565-.227,6.43-.411,9.307-.6l6.209,1.732-10.756,1.55c1.812.755,2.941,1.226,3.778,1.577,1.632-.335,2.7-.553,3.74-.765l2.94,1.08a34.977,34.977,0,0,0,11.89-1.646,19.451,19.451,0,0,1,4.508-.057l6.755,1.868,1.74-3.4,1.96,3.614c2.015-.949,3.1-1.463,4.192-1.974.46.43.917.862,1.635,1.539,1.47-.877,2.724-1.624,3.97-2.365l4,1.457c.692-.56,1.31-1.063,2.131-1.725,1.646.382,2.928.682,4.213.982l10.409-1.518c1.688.067,1.749,1.01,3.624.434-.785-.993-1.571-1.985-2.057-2.6,1.892-2.216,6.263-1.337,10.04-1.8v-3.32c2.361,1.87,4.044,3.206,5.752,4.56-.636.275-1.275.55-1.91.822a21.765,21.765,0,0,0,11.23.618c4.56,1.67,8.766-.637,13.584-.137l3.962,2.27c2.2-.44,4.414-.823,6.455-1.315a17.5,17.5,0,0,0,2.68-1.042h27.465c4.138-1.2,9.772-.2,13.9-1.413,4.655,1.3,9.946.531,14.925.623,7.423.134,14.873.034,24.374.034.233-.289.86-1.063,1.678-2.07,2.809,1,4.593,1.634,6.9,2.458,1.68-.865,2.906-1.494,4.554-2.341l-5.3-1.473,5.6-1.41c-.57-.71-.975-1.217-1.6-2,3.39.064,5.808.11,8.534.16v3.577h3.54c.215-1.1-.938-2.57,3.937-2.71v3.24l6.546,1.107c1.087-.341,1.742-.547,2.112-.665a63.751,63.751,0,0,0,6.752,1.332c3.879.44,8.927-.232,13.986.668,2.76.49,7.768-.925,10.539-.439a42.46,42.46,0,0,0,8.195.537c6.267-.08,12.719.524,18.763-.694a10.807,10.807,0,0,1,3.8,0c6.454,1.845,11.38-.83,18.52-.427,4.916,1,11.535.13,19.051.476-1.516-.678-2.1-.937-2.67-1.2a38.123,38.123,0,0,1,19.914.508l1.945-.688c3.377.327,6.312.59,9.213.9,2.535.268,5.553-.9,7.44.34,7.607-1.226,15.374-.583,23.13-.676v-6.125a11.467,11.467,0,0,1-2.585.14c-4.731-.328-9.724-.1-14.607-.085-4.848.016-9.695.063-14.543.094-4.477,1.95-8.734-.394-13.139-.1-1.541.1-3.177.047-4.667.208-14.708,1.582-14.676,1.537-26.584.712-2.763-.19-5.753.116-9.428.214-.346-.408-.912-1.079-1.961-2.316l4.837,1.649c-1.055-1.218-1.57-1.814-2.159-2.492.555-.216,1.477-.57,2.473-.957l1.82.62c2.814-.479,5.454-1.112,8.323-1.377,6.047-.564,11.658.751,19.28.863.236.169,1.075.782,2.12,1.541.734-.817,1.126-1.257,1.665-1.857,3.771.22,7.413.436,11.845.7,3.961-1.586,10.936.44,15.913-1.154,6.9,1.37,14.267.364,21.4.6v-7.536l-.747.053q-.289-.587-.58-1.173l1.284-.5a.31.31,0,0,1,.043.014V1118H1459V36.272l-1.283.6-.322-.176c-.039.41-.423.658-.806.9l-.52-.286,1.35-.632c.1.06.214.118.322.178.037-.412.422-.658.8-.906l.455.25V27.793c-.388.139-.751.266-1.126.4l-1.139-1.726c-1.088,0-1.951,0-2.818.022v1.349l-11.707,1.986c-1.583-1.14-3.483-2.5-5.738-4.127,4.512-.247,8.97-.055,14.18-.147-.843.682-1.314,1.059-2.463,1.988,2.545-.455,4.151-.743,5.728-1.05a6.318,6.318,0,0,1,2.238-.86,24.7,24.7,0,0,0,2.845-.045v-6.1c-1.641.21-3.457.88-4.5-.12l-12.5.566c-.185-.073-.738-.287-3.237-1.257l-1.286,2.768c-3.336-.884-5.713-1.511-8.11-2.147l-2.942,1.012c-1.348-.343-2.773-.708-4.172-1.065-.84.379-1.472.665-2.323,1.047-1.544-1.713-3.358-.888-5.036-.15l-2.571-.885c-1.5.459-2.646.808-3.361,1.028-1.914-.418-3.287-.716-4.7-1.026l-1.453,2.116-3.524-.97c-2.067.556-4.2,1.132-5.938,1.6-1.392-.714-2.59-1.325-3.914-2-4.562.318-8.63.6-13.112.918l-1.288-.6c-.89.335-1.763.66-2.51.941-1.536-.43-2.7-.759-3.846-1.078-4.269,1.739-8.414,1.02-12.413-.036l-1.992.914a12.768,12.768,0,0,0-2.8-.767c-2.29-.113-4.622-.078-6.928-.023a37.033,37.033,0,0,0-6.615.386c-2.359.522-4.26-1.178-5.708-.345-2.273,1.3-4.45-.524-5.481.016-2.273,1.182-3.79-.361-5.638-.075a44.045,44.045,0,0,1-6.219.83,30.985,30.985,0,0,1-5.241-.8,20.531,20.531,0,0,1-3.73.83c-12.462.458-25.091-.89-37.432.92-2.1-1.27-4.918.487-6.213-.1-2.88-1.31-4.753.722-7.446.175-3.006-.612-6.828.623-9.74-.827-6.764,1.615-13.927.325-20.846.786a6.334,6.334,0,0,0-1.96.81l-2.4-.994-4.407,1.274c-1.3-2.827-5.64.769-7.8-1.1a5.145,5.145,0,0,0-1.473.23,7.788,7.788,0,0,0-1.244.615c-.62-.286-1.24-.574-2.147-1-1.3.331-2.734.694-4.128,1.05l-2.663-.758a111.164,111.164,0,0,1-24.958.216l-2.457,1.365c-2.436.425-4.36-2.006-6.73-.14a6.165,6.165,0,0,0-5.493-.115l-3.834-.857c-1.047.737-2.027,1.43-3.3,2.333-1.7-2.257-3.638-.6-5.434-.482l-3.406-1.743c-1.054.69-2.1,1.382-3.085,2.027-3.875-.17-7.368-.325-11.284-.5l-1.986-1.018c-3.75.371-7.162,1.2-10.143.906a112.247,112.247,0,0,0-21.161.226c-4.187.364-8.229.684-11.262-.337l-9.323.754a11.861,11.861,0,0,1-1.226-.164c-2.633-.494-6.412-.208-9.634-.079-5.113.2-10.352-.257-15.463-.064V23.076l-1.486.05c.2.472.4.942.6,1.415a38.359,38.359,0,0,0-5.44.647c-4.977-1.6-11.952.43-15.914-1.155l-11.844.7c-.54-.6-.932-1.039-1.663-1.859l-2.122,1.544c-7.625.11-13.233,1.425-19.28.862-2.87-.268-5.511-.9-8.323-1.378-.475.163-1.15.392-1.82.62-1-.385-1.918-.742-2.475-.955l2.163-2.492c-2.13.723-2.806.952-4.84,1.647l1.963-2.316c3.673.1,6.666.406,9.427.216,11.907-.828,11.876-.87,26.581.71,1.49.16,3.126.1,4.67.207,3.457.23,6.826-1.139,10.28-.806-.022.006-.046.008-.071.014,1.374.89,2.355,1.53,3.37,2.188.965-.5,1.364-.7,1.481-.759,1.467.289,2.779.544,4.489.88V21.474c2.712.018,5.422.044,8.132.053.9,0,1.808.016,2.716.028v.418l1.432-.4c2.9.045,5.789.066,8.615-.05l1.133,1.561c1.357-.34,2.47-.621,3.514-.884l2.242.865c.284-.389.525-.72.782-1.075a8.407,8.407,0,0,0,1.74-.135,73.453,73.453,0,0,1,7.926-.55c.23.507.457,1.007.688,1.509a51.3,51.3,0,0,1,6.948-.71c1.871.047,3.644-1.71,5.493-.094a6.527,6.527,0,0,1,6.538-.17,6.262,6.262,0,0,1,5.53-.1l3.087-.71,2.561,1.018a46.438,46.438,0,0,1,5.034-.886c6.107-.363,12.486.731,18.359-.914,1.861,1.647,5.4-1.057,7.623.8.556.467,4.433.5,5.71.006,2.84-1.1,8.509-.014,8.905-2.963.02-.14.7-.26.873-.321,1.025.843,2.027,1.67,2.967,2.447h5.628c1.108-.538,2.33-1.128,3.13-1.514,5.763,1.227,11.305.44,17.09.643V16.128c1.886,1.423,3.01,2.272,4.28,3.233,3.739,0,7.77-.024,11.8,0,4.165.03,8.47-.41,12.015,1.008.893-.428,1.516-.726,2.467-1.179l3.264.963c1.664-1.484,3.541-.575,5.253-.033,1.443-.9,2.755-1.722,3.144-3.769,1.113-1.23,3-1.23,5.673-1.23l3.657,2.736-4.828-1.173c-3.492.957-3.492.957-4.5-.333.921,1.775.921,2.322.921,2.64,3.548.429,6.429.776,9,1.085l6.518-1.152V16.985l-3.208-.6V15.073h6.485c.255,1.245.476,2.337.659,3.233h8.112c1.106-.9,2.034-1.653,3.256-2.649.3,1.043.53,1.855.778,2.731h3.106c0-.9,0-1.74-.078-2.537a11.707,11.707,0,0,1-1.5-.572l.549-.28,1.208.727c-.114.057-.224.115-.259.125,3.734.1.257,2.179,2.673,2.594h3.6c.555-.58,1.089-1.137,1.54-1.611l3.469,1.082,7.9-5.21-2.624-1.343c-12.684,0-25.66-.037-38.632.037a51.851,51.851,0,0,0-6.352.8l-2.5-.945c-2.552.677-4.924,1.308-7.219,1.918-2.512-.669-4.887-1.3-7.271-1.931-3.673,1.978-7.244.711-10.539-.012l-2.38,1.123c-2.768-.411-5.57-1.892-8.9-.184-.686.35-3.349-.31-4.769-.467-4.908.74-8.1,2.269-8.191,5.118-1.563-1.155-2.775-2.051-4.051-2.992l-5.476.843c-1.233-.606-2.41-1.182-3.645-1.788l-2.718.943L1158,13.024c-.7.841-1.194,1.425-1.383,1.653-3.455-.255-6.145-.67-8.785-.6a26.132,26.132,0,0,1-10.7-1.8c-1.681,1.433-3.534.855-5.28.082l-6.99,2.427c-2.7-1.478-6.435-1.884-10.468-1.637-5.3.326-10.572.74-15.845,1.161-.452.037-.8.4-1.114.565l-2.86-1.1-4.288,1.972-1.777-.91c-2.512.489-5.334.91-7.92,1.575-2.768.708-7.374-.64-8.276,1.584.522,1.147.979,2.145,1.416,3.1l-8.078-1.177.41-.562c.17.074.343.147.514.22.788-.5,1.575-1,2.944-1.856h-3.913l1.589-1.247c-.76-.292-1.679-.649-2.361-.913-9.056-.49-18.165.639-27.057-.794-1.884,1.243-4.9.07-7.438.339-2.9.31-5.834.57-9.213.9l-1.945-.688a38.123,38.123,0,0,1-19.914.508l2.67-1.2c-7.516.35-14.134-.517-19.049.475-7.142.4-12.068-2.269-18.521-.424a10.838,10.838,0,0,1-3.8,0c-6.044-1.217-12.495-.615-18.763-.694a42.466,42.466,0,0,0-8.2.536c-2.77.486-7.78-.93-10.537-.44-5.06.9-10.109.228-13.99.67a63.8,63.8,0,0,0-6.747,1.33c-.373-.115-1.03-.323-2.114-.664-1.875.317-4.032.682-6.546,1.11V19.78c-4.875-.137-3.722-1.611-3.936-2.71H886.2v3.577c-2.725.053-5.143.1-8.534.16.63-.785,1.037-1.293,1.6-2-1.3-.327-3.147-.79-5.6-1.408,1.825-.51,3.347-.933,5.3-1.474l-4.553-2.34-6.905,2.46c-.818-1.008-1.445-1.785-1.679-2.073-9.5,0-16.95-.1-24.373.035-4.98.09-10.268-.678-14.924.622-4.13-1.216-9.763-.212-13.9-1.414H785.16a17.524,17.524,0,0,0-2.68-1.041c-2.039-.49-4.25-.874-6.455-1.314-1.443.826-2.769,1.589-3.961,2.27-4.818.5-9.023-1.809-13.586-.136a21.744,21.744,0,0,0-11.227.615c.634.275,1.27.547,1.908.822-1.708,1.355-3.39,2.69-5.751,4.56V15.67c-3.777-.459-8.147.417-10.04-1.8.485-.616,1.272-1.61,2.058-2.6-1.876-.574-1.94.367-3.626.433l-10.409-1.515-4.212.982c-.822-.665-1.441-1.165-2.132-1.727-1.382.506-2.726.994-4,1.458q-1.984-1.183-3.97-2.364l-1.635,1.539c-1.088-.514-2.177-1.025-4.19-1.976-.71,1.3-35.207,2.078-36.04,3.615l-1.74-3.4-6.755,1.869a19.572,19.572,0,0,1-4.509-.057,34.929,34.929,0,0,0-11.89-1.647l-2.939,1.078c-1.043-.211-2.108-.43-3.74-.762l-3.779,1.576,10.757,1.55-6.209,1.73c-2.875-.182-5.742-.366-9.3-.6-.906,1.09-1.622,1.953-2.64,3.176h4.66c.214-.21.43-.417.643-.627.437.21.875.418.81.627H632.1c.586-.494,1.188-1,1.88-1.59.636,1.787.636,1.787-2.166,3.016a27.036,27.036,0,0,1-3.236-1.426h-1.453c0,.63,0,1.26,0,1.889-1.608.623-3.222,1.245-4.109,1.586-8.075-.9-16.872.133-22.971-2.14-1.7.422-2.724.68-4.014,1l-3.967-.861-3.783.818c-4.37-.775-4.377-.706-11.349-.814-2.635-.041-5.124-1.128-7.936-.157-2.308-1.092-5.457-.357-8.177-.559-3-.221-6.387.49-9.1-.71-.494-.217-2.994.375-4.545.353-2.78-.039-5.57-.21-8.309-.42-2.367-.18-4.655-.664-7.005-.693-1.549-.02-3.135.084-4.906.217-.183-.2-.365-.394-.555-.6,2.5-.158,4.294-.272,6.712-.423l-3.677-2.947c-1.235.218-1.99.349-2.24.392.5.722.913,1.318,1.364,1.975-4.134-.28-7.438-.495-10.723-.75-.26-.021-.378-.325-.86-.78h7.9c-1.326-.69-2.238-1.166-3.012-1.57-4.975.906-9.315,1.6-13.786.184a5.775,5.775,0,0,1-1.287.433c-3.143.438-6.81.13-9.642,1.018-3.037-1.212-5.965.25-9.142.074a46.709,46.709,0,0,0-11.968.59,14.52,14.52,0,0,1-3.3.246,14.872,14.872,0,0,1-1.59-.64c-.318.1-.606.18-.88.263a3.914,3.914,0,0,1-1.944-1.1c6.234-.174,12.066-1.349,18.487-.95A9.015,9.015,0,0,0,488.7,11.1,110.392,110.392,0,0,1,509.579,9.7c3.45.094,5.815-.71,8.748-1.006.3-.03.367-.422.79-.963l-2.637-1.22L504.108,7.953c-3.769-.236-6.471-.56-9.144-.526-2.35.03-4.636.514-7.005.694-2.738.21-5.528.38-8.309.42-1.551.021-4.051-.573-4.545-.353-2.7,1.2-6.1.488-9.1.71-2.72.2-5.867-.534-8.177.558-2.812-.97-5.3.116-7.936.157-6.972.108-6.98.04-11.349.814l-3.783-.818c-1.474.32-2.784.6-3.967.86l-4.014-1c-6.1,2.273-14.9,1.243-22.971,2.137-.887-.339-2.5-.962-4.109-1.584,0-.63,0-1.26,0-1.89h-1.453a27.345,27.345,0,0,1-3.232,1.427c-2.806-1.23-2.806-1.23-2.17-3.015l1.88,1.588h3.522c-.063-.208.373-.416.81-.626.214.21.43.418.643.626h4.66c-1.016-1.224-1.734-2.084-2.638-3.174-3.565.227-6.43.411-9.307.6l-6.209-1.732,10.757-1.55c-1.812-.755-2.942-1.226-3.78-1.577-1.63.335-2.7.553-3.739.765l-2.94-1.08a34.973,34.973,0,0,0-11.89,1.646,19.451,19.451,0,0,1-4.508.057L363.358.218l-1.74,3.4L359.658,0c-2.015.949-3.1,1.463-4.191,1.974-.461-.43-.918-.862-1.636-1.539-1.47.877-2.724,1.624-3.97,2.365l-4-1.457c-.692.56-1.31,1.063-2.131,1.725-1.646-.382-2.928-.682-4.213-.982L329.112,3.6c-1.688-.067-1.749-1.01-3.624-.434l2.058,2.6c-1.893,2.216-6.264,1.337-10.04,1.8v3.32c-2.362-1.87-4.045-3.206-5.753-4.56.636-.275,1.275-.55,1.91-.822a21.764,21.764,0,0,0-11.23-.618c-4.56-1.67-8.766.637-13.584.137l-3.962-2.27c-2.2.44-4.414.823-6.455,1.315a17.487,17.487,0,0,0-2.679,1.042H248.287c-4.138,1.2-9.772.2-13.9,1.413-4.655-1.3-9.946-.531-14.925-.623-7.423-.134-14.873-.034-24.374-.034-.233.289-.86,1.063-1.678,2.07-2.809-1-4.593-1.634-6.9-2.458-1.68.865-2.906,1.494-4.554,2.341l5.3,1.473-5.6,1.41,1.6,2c-3.391-.064-5.809-.11-8.535-.16V8.97h-3.54c-.215,1.1.938,2.57-3.937,2.71V8.44l-6.546-1.107c-1.086.341-1.741.547-2.112.665a63.67,63.67,0,0,0-6.752-1.332c-3.879-.44-8.926.232-13.986-.668-2.759-.49-7.767.925-10.538.439a42.469,42.469,0,0,0-8.2-.537c-6.267.08-12.719-.524-18.763.694a10.809,10.809,0,0,1-3.8,0c-6.454-1.845-11.38.83-18.52.427-4.916-1-11.535-.13-19.051-.476,1.516.678,2.1.937,2.67,1.2A38.116,38.116,0,0,1,41.73,7.229l-1.946.688c-3.377-.327-6.312-.59-9.213-.9-2.535-.268-5.553.9-7.44-.34C15.524,7.906,7.757,7.262,0,7.355V13.48a11.469,11.469,0,0,1,2.585-.14c4.732.328,9.724.1,14.607.085,4.848-.016,9.7-.063,14.543-.094,4.477-1.95,8.735.394,13.14.1,1.54-.1,3.176-.047,4.666-.208,14.708-1.582,14.677-1.537,26.584-.712,2.763.19,5.754-.116,9.428-.214.346.408.912,1.079,1.962,2.316l-4.838-1.649c1.055,1.218,1.57,1.814,2.159,2.492-.555.216-1.477.57-2.473.957l-1.82-.62c-2.814.479-5.454,1.112-8.322,1.377-6.048.564-11.659-.751-19.281-.863-.236-.169-1.075-.782-2.12-1.541-.734.817-1.126,1.257-1.665,1.857-3.771-.22-7.413-.436-11.845-.7-3.96,1.586-10.936-.44-15.913,1.154-6.9-1.37-14.267-.364-21.4-.6V24.02l.747-.053.58,1.173-1.284.5A.309.309,0,0,1,0,25.626V82H19Z" fill="url(#linear-gradient)"/>
      </g>
    </g>
  </g>
</svg>
